<svg width="48" height="48" viewBox="0 0 48 48" fill="none" xmlns="http://www.w3.org/2000/svg">
<path fill-rule="evenodd" clip-rule="evenodd" d="M29.168 37.5C28.1083 39.3547 26.1361 40.4994 24 40.4994C21.8639 40.4994 19.8917 39.3547 18.832 37.5H1.5V40.5C1.5 43.8137 4.18629 46.5 7.5 46.5H40.5C43.8137 46.5 46.5 43.8137 46.5 40.5V37.5H29.168Z" stroke="currentColor" stroke-width="2.5" stroke-linecap="round" stroke-linejoin="round"/>
<path d="M43.5 37.5V28.24" stroke="currentColor" stroke-width="2.5" stroke-linecap="round" stroke-linejoin="round"/>
<path d="M4.5 37.5V19.5C4.5 16.1863 7.18629 13.5 10.5 13.5H28.5" stroke="currentColor" stroke-width="2.5" stroke-linecap="round" stroke-linejoin="round"/>
<path fill-rule="evenodd" clip-rule="evenodd" d="M28.5 3.75C28.5 2.50736 29.5074 1.5 30.75 1.5H44.25C45.4926 1.5 46.5 2.50736 46.5 3.75V26.25C46.5 27.4926 45.4926 28.5 44.25 28.5H30.75C29.5074 28.5 28.5 27.4926 28.5 26.25V3.75Z" stroke="currentColor" stroke-width="2.5" stroke-linecap="round" stroke-linejoin="round"/>
<path d="M46.5 22.5H28.5" stroke="currentColor" stroke-width="2.5" stroke-linecap="round" stroke-linejoin="round"/>
<path d="M46.5 7.5H28.5" stroke="currentColor" stroke-width="2.5" stroke-linecap="round" stroke-linejoin="round"/>

</svg>
