<svg width="48" height="48" viewBox="0 0 48 48" fill="none" xmlns="http://www.w3.org/2000/svg">
<path fill-rule="evenodd" clip-rule="evenodd" d="M33 46.5C40.4558 46.5 46.5 40.4558 46.5 33C46.5 25.5442 40.4558 19.5 33 19.5C25.5442 19.5 19.5 25.5442 19.5 33C19.5 40.4558 25.5442 46.5 33 46.5Z" stroke="currentColor" stroke-width="2.5" stroke-linecap="round" stroke-linejoin="round"/>
<path d="M20.2681 37.5H45.7321" stroke="currentColor" stroke-width="2.5" stroke-linecap="round" stroke-linejoin="round"/>
<path d="M20.2681 28.5H45.7321" stroke="currentColor" stroke-width="2.5" stroke-linecap="round" stroke-linejoin="round"/>
<path d="M30.088 19.816C27.6654 28.5582 28.0219 37.8375 31.108 46.368" stroke="currentColor" stroke-width="2.5" stroke-linecap="round" stroke-linejoin="round"/>
<path d="M35.9119 19.816C36.9695 23.6205 37.5037 27.5513 37.4999 31.5C37.5083 36.5699 36.6283 41.6019 34.8999 46.368" stroke="currentColor" stroke-width="2.5" stroke-linecap="round" stroke-linejoin="round"/>
<path d="M43.5 15V4.732C43.4956 2.94962 42.0524 1.5055 40.27 1.5H4.714C2.94124 1.50549 1.50549 2.94124 1.5 4.714V35.77C1.50549 37.5516 2.9484 38.9945 4.73 39H13.5" stroke="currentColor" stroke-width="2.5" stroke-linecap="round" stroke-linejoin="round"/>
<path d="M1.5 10.5H43.5" stroke="currentColor" stroke-width="2.5" stroke-linecap="round" stroke-linejoin="round"/>
<path d="M13.5 1.5V10.5" stroke="currentColor" stroke-width="2.5" stroke-linecap="round" stroke-linejoin="round"/>
<path d="M22.5 1.5V10.5" stroke="currentColor" stroke-width="2.5" stroke-linecap="round" stroke-linejoin="round"/>

</svg>
